<?xml version="1.0" encoding="UTF-8"?>
<svg id="_レイヤー_2" data-name="レイヤー 2" xmlns="http://www.w3.org/2000/svg" viewBox="0 0 245.15 65.58">
  <defs>
    <style>
      .cls-1 {
        letter-spacing: .05em;
      }

      .cls-2 {
        font-family: BrandonGrotesque-Regular, 'Brandon Grotesque';
        font-size: 22.77px;
      }

      .cls-2, .cls-3 {
        fill: #231815;
      }

      .cls-3 {
        stroke: #231815;
        stroke-miterlimit: 10;
        stroke-width: .5px;
      }

      .cls-4 {
        letter-spacing: .05em;
      }
    </style>
  </defs>
  <g id="_レイヤー_1-2" data-name="レイヤー 1">
    <g>
      <g>
        <line class="cls-3" x1="27.17" y1="3.24" x2="38.42" y2="9.73"/>
        <line class="cls-3" x1="38.42" y1="3.24" x2="27.17" y2="9.73"/>
        <line class="cls-3" x1="32.79" x2="32.79" y2="12.97"/>
      </g>
      <g>
        <line class="cls-3" x1="52.41" y1="10.03" x2="39.44" y2="10.03"/>
        <line class="cls-3" x1="42.68" y1="4.4" x2="49.17" y2="15.62"/>
        <line class="cls-3" x1="49.17" y1="4.4" x2="42.68" y2="15.62"/>
      </g>
      <g>
        <line class="cls-3" x1="55.56" y1="13.17" x2="55.56" y2="26.14"/>
        <line class="cls-3" x1="61.18" y1="22.9" x2="49.96" y2="16.41"/>
        <line class="cls-3" x1="61.18" y1="16.41" x2="49.96" y2="22.9"/>
      </g>
      <g>
        <line class="cls-3" x1="62.34" y1="38.42" x2="55.85" y2="27.17"/>
        <line class="cls-3" x1="62.34" y1="27.17" x2="55.85" y2="38.42"/>
        <line class="cls-3" x1="65.58" y1="32.79" x2="52.61" y2="32.79"/>
      </g>
      <g>
        <line class="cls-3" x1="61.18" y1="42.72" x2="49.96" y2="49.2"/>
        <line class="cls-3" x1="55.56" y1="52.45" x2="55.56" y2="39.48"/>
        <line class="cls-3" x1="61.18" y1="49.2" x2="49.96" y2="42.72"/>
      </g>
      <g>
        <line class="cls-3" x1="42.68" y1="61.21" x2="49.17" y2="49.96"/>
        <line class="cls-3" x1="52.41" y1="55.59" x2="39.44" y2="55.59"/>
        <line class="cls-3" x1="49.17" y1="61.21" x2="42.68" y2="49.96"/>
      </g>
      <g>
        <line class="cls-3" x1="38.42" y1="62.34" x2="27.17" y2="55.85"/>
        <line class="cls-3" x1="27.17" y1="62.34" x2="38.42" y2="55.85"/>
        <line class="cls-3" x1="32.79" y1="65.58" x2="32.79" y2="52.61"/>
      </g>
      <g>
        <line class="cls-3" x1="13.14" y1="10.03" x2="26.11" y2="10.03"/>
        <line class="cls-3" x1="22.86" y1="4.4" x2="16.38" y2="15.62"/>
        <line class="cls-3" x1="16.38" y1="4.4" x2="22.86" y2="15.62"/>
      </g>
      <g>
        <line class="cls-3" x1="9.99" y1="13.17" x2="9.99" y2="26.14"/>
        <line class="cls-3" x1="4.37" y1="22.9" x2="15.62" y2="16.41"/>
        <line class="cls-3" x1="4.37" y1="16.41" x2="15.62" y2="22.9"/>
      </g>
      <g>
        <line class="cls-3" x1="3.24" y1="38.42" x2="9.73" y2="27.17"/>
        <line class="cls-3" x1="3.24" y1="27.17" x2="9.73" y2="38.42"/>
        <line class="cls-3" y1="32.79" x2="12.97" y2="32.79"/>
      </g>
      <g>
        <line class="cls-3" x1="4.37" y1="42.72" x2="15.62" y2="49.2"/>
        <line class="cls-3" x1="9.99" y1="52.45" x2="9.99" y2="39.48"/>
        <line class="cls-3" x1="4.37" y1="49.2" x2="15.62" y2="42.72"/>
      </g>
      <g>
        <line class="cls-3" x1="22.86" y1="61.21" x2="16.38" y2="49.96"/>
        <line class="cls-3" x1="13.14" y1="55.59" x2="26.11" y2="55.59"/>
        <line class="cls-3" x1="16.38" y1="61.21" x2="22.86" y2="49.96"/>
      </g>
    </g>
    <text class="cls-2" transform="translate(82.78 42.35)"><tspan class="cls-1" x="0" y="0">C</tspan><tspan class="cls-4" x="17.23" y="0">A</tspan><tspan class="cls-1" x="33.38" y="0">CTUS design</tspan></text>
  </g>
</svg>